<svg xmlns="http://www.w3.org/2000/svg" xmlns:wrs="http://www.wiris.com/xml/cvs-extension" height="45" width="85" wrs:baseline="30"><!--MathML: <math xmlns="http://www.w3.org/1998/Math/MathML"><msqrt><mn>2</mn><msqrt><mn>2</mn></msqrt><mfrac><mrow><mi>G</mi><mi>M</mi></mrow><mi>R</mi></mfrac></msqrt></math>--><defs><style type="text/css"/></defs><polyline fill="none" points="12,-38 11,-38 5,0 2,-15" stroke="#000000" stroke-linecap="square" stroke-width="1" transform="translate(0.5,42.5)"/><polyline fill="none" points="5,0 2,-15 0,-13" stroke="#000000" stroke-linecap="square" stroke-width="1" transform="translate(0.5,42.5)"/><line stroke="#000000" stroke-linecap="square" stroke-width="1" x1="12.5" x2="83.5" y1="4.5" y2="4.5"/><text font-family="Arial" font-size="16" text-anchor="middle" x="18.5" y="30">2</text><polyline fill="none" points="12,-16 11,-16 5,0 2,-6" stroke="#000000" stroke-linecap="square" stroke-width="1" transform="translate(23.5,31.5)"/><polyline fill="none" points="5,0 2,-6 0,-5" stroke="#000000" stroke-linecap="square" stroke-width="1" transform="translate(23.5,31.5)"/><line stroke="#000000" stroke-linecap="square" stroke-width="1" x1="35.5" x2="47.5" y1="15.5" y2="15.5"/><text font-family="Arial" font-size="16" text-anchor="middle" x="41.5" y="30">2</text><line stroke="#000000" stroke-linecap="square" stroke-width="1" x1="50.5" x2="79.5" y1="24.5" y2="24.5"/><text font-family="Arial" font-size="16" font-style="italic" text-anchor="middle" x="58.5" y="19">G</text><text font-family="Arial" font-size="16" font-style="italic" text-anchor="middle" x="70.5" y="19">M</text><text font-family="Arial" font-size="16" font-style="italic" text-anchor="middle" x="65.5" y="41">R</text></svg>